<?xml version="1.0" encoding="utf-8" standalone="no"?>
<!DOCTYPE svg PUBLIC "-//W3C//DTD SVG 20010904//EN" "http://www.w3.org/TR/2001/REC-SVG-20010904/DTD/svg10.dtd">
<svg xmlns="http://www.w3.org/2000/svg" width="917" height="371" xmlns:xlink="http://www.w3.org/1999/xlink" style="font-weight: 400;  font-size: 22px; font-family: 'Nanum Pen Script', 'Comic Sans MS';"> 
<source><![CDATA[microphone->noiseReducer(AudioWorkletNode): waveform
noiseReducer(AudioWorkletNode)->audioCtx.destination: anti-wave
Note over noiseReducer(AudioWorkletNode): AudioWorkletProcessor
microphone-->analyser1: display waveform
noiseReducer(AudioWorkletNode)-->analyser2: display anti-wave]]>
</source>
<desc></desc>
<defs>
<style type="text/css">
        @font-face {
            font-family: "Nanum Pen Script";
            src: url("/assets/fonts/NanumPenScript-Regular.ttf");
        }
</style>

<marker viewBox="0 0 5 5" markerWidth="5" markerHeight="5" orient="auto" refX="5" refY="2.5" id="markerArrowBlock"><path d="M 0 0 L 5 2.5 L 0 5 z"></path></marker><marker viewBox="0 0 9.6 16" markerWidth="4" markerHeight="16" orient="auto" refX="9.6" refY="8" id="markerArrowOpen"><path d="M 9.6,8 1.92,16 0,13.7 5.76,8 0,2.286 1.92,0 9.6,8 z"></path></marker></defs><g class="title"></g><g class="actor"><path d="M10,20C108.5,24.7 99.1,15.3 127.3,20.0C129.0,37.7 125.5,30.6 127.3,63.0C91.6,67.7 87.4,58.3 10.0,63.0C8.3,52.7 11.7,56.1 10.0,20.0" stroke="#000000" fill="#ffffff" style="stroke-width: 2;"></path><text x="20" y="44" style=" font-size: 22px;  "><tspan x="20">microphone</tspan></text></g><g class="actor"><path d="M10,308C45.6,312.7 92.5,303.3 127.3,308.0C125.5,339.0 129.0,318.3 127.3,351.0C46.8,355.7 99.1,346.3 10.0,351.0C8.3,335.9 11.7,326.6 10.0,308.0" stroke="#000000" fill="#ffffff" style="stroke-width: 2;"></path><text x="20" y="332" style=" font-size: 22px;  "><tspan x="20">microphone</tspan></text></g><path d="M68.6,63.0C78.4,124.4 58.8,249.2 68.6,308.0" stroke="#000000" fill="none" style="stroke-width: 2;"></path><g class="actor"><path d="M147.25,20C218.9,8.1 354.6,31.9 445.9,20.0C447.6,26.9 444.2,50.2 445.9,63.0C231.0,74.9 209.1,51.1 147.3,63.0C145.5,49.6 149.0,32.7 147.3,20.0" stroke="#000000" fill="#ffffff" style="stroke-width: 2;"></path><text x="157.25" y="44" style=" font-size: 22px;  "><tspan x="157.25">noiseReducer(AudioWorkletNode)</tspan></text></g><g class="actor"><path d="M147.25,308C202.1,319.9 313.1,296.1 445.9,308.0C444.2,318.3 447.6,340.7 445.9,351.0C398.1,339.1 197.5,362.9 147.3,351.0C149.0,326.5 145.5,321.6 147.3,308.0" stroke="#000000" fill="#ffffff" style="stroke-width: 2;"></path><text x="157.25" y="332" style=" font-size: 22px;  "><tspan x="157.25">noiseReducer(AudioWorkletNode)</tspan></text></g><path d="M296.6,63.0C286.8,268.8 306.4,249.2 296.6,308.0" stroke="#000000" fill="none" style="stroke-width: 2;"></path><g class="actor"><path d="M465.875,20C546.5,27.7 554.6,12.3 657.3,20.0C655.6,56.1 659.0,31.4 657.3,63.0C602.8,70.7 613.7,55.3 465.9,63.0C464.2,55.1 467.6,49.1 465.9,20.0" stroke="#000000" fill="#ffffff" style="stroke-width: 2;"></path><text x="475.875" y="44" style=" font-size: 22px;  "><tspan x="475.875">audioCtx.destination</tspan></text></g><g class="actor"><path d="M465.875,308C534.7,300.3 496.5,315.7 657.3,308.0C655.6,339.1 659.0,314.9 657.3,351.0C626.7,343.3 563.6,358.7 465.9,351.0C464.2,320.0 467.6,328.3 465.9,308.0" stroke="#000000" fill="#ffffff" style="stroke-width: 2;"></path><text x="475.875" y="332" style=" font-size: 22px;  "><tspan x="475.875">audioCtx.destination</tspan></text></g><path d="M561.6,63.0C571.4,249.2 551.8,188.5 561.6,308.0" stroke="#000000" fill="none" style="stroke-width: 2;"></path><g class="actor"><path d="M677.28125,20C693.4,23.6 703.0,16.4 768.5,20.0C770.2,53.5 766.7,52.7 768.5,63.0C691.9,59.4 699.2,66.6 677.3,63.0C675.6,47.8 679.0,52.7 677.3,20.0" stroke="#000000" fill="#ffffff" style="stroke-width: 2;"></path><text x="687.28125" y="44" style=" font-size: 22px;  "><tspan x="687.28125">analyser1</tspan></text></g><g class="actor"><path d="M677.28125,308C691.9,311.6 753.9,304.4 768.5,308.0C766.7,321.2 770.2,340.3 768.5,351.0C753.9,347.4 730.1,354.6 677.3,351.0C675.6,314.9 679.0,318.6 677.3,308.0" stroke="#000000" fill="#ffffff" style="stroke-width: 2;"></path><text x="687.28125" y="332" style=" font-size: 22px;  "><tspan x="687.28125">analyser1</tspan></text></g><path d="M722.9,63.0C732.7,249.2 713.1,188.6 722.9,308.0" stroke="#000000" fill="none" style="stroke-width: 2;"></path><g class="actor"><path d="M788.46875,20C859.6,24.0 841.0,16.0 887.3,20.0C889.0,26.9 885.6,31.2 887.3,63.0C822.3,67.0 855.0,59.0 788.5,63.0C786.7,37.9 790.2,30.3 788.5,20.0" stroke="#000000" fill="#ffffff" style="stroke-width: 2;"></path><text x="798.46875" y="44" style=" font-size: 22px;  "><tspan x="798.46875">analyser2</tspan></text></g><g class="actor"><path d="M788.46875,308C863.6,304.0 871.5,312.0 887.3,308.0C885.6,324.5 889.0,314.9 887.3,351.0C862.1,347.0 841.7,355.0 788.5,351.0C790.2,328.2 786.7,337.4 788.5,308.0" stroke="#000000" fill="#ffffff" style="stroke-width: 2;"></path><text x="798.46875" y="332" style=" font-size: 22px;  "><tspan x="798.46875">analyser2</tspan></text></g><path d="M837.9,63.0C847.7,229.6 828.1,121.8 837.9,308.0" stroke="#000000" fill="none" style="stroke-width: 2;"></path><g class="signal"><text x="138.8359375" y="90.5" style=" font-size: 22px;  "><tspan x="138.8359375">waveform</tspan></text><path d="M68.6,106.0C260.1,96.9 198.6,115.1 296.6,106.0" stroke="#000000" fill="none" style="stroke-width: 2; marker-end: url(&quot;#markerArrowBlock&quot;);"></path></g><g class="signal"><text x="391.0625" y="133.5" style=" font-size: 22px;  "><tspan x="391.0625">anti-wave</tspan></text><path d="M296.6,149.0C360.2,159.6 463.6,138.4 561.6,149.0" stroke="#000000" fill="none" style="stroke-width: 2; marker-end: url(&quot;#markerArrowBlock&quot;);"></path></g><g class="note"><path d="M191.3203125,169C225.0,160.6 241.8,177.4 401.8,169.0C403.1,190.9 400.5,176.9 401.8,202.0C228.8,210.4 241.8,193.6 191.3,202.0C190.0,174.3 192.6,176.9 191.3,169.0" stroke="#000000" fill="#ffffff" style="stroke-width: 2;"></path><text x="196.3203125" y="188" style=" font-size: 22px;  "><tspan x="196.3203125">AudioWorkletProcessor</tspan></text></g><g class="signal"><text x="319.1015625" y="229.5" style=" font-size: 22px;  "><tspan x="319.1015625">display waveform</tspan></text><path d="M68.6,245.0C232.8,271.2 485.2,218.8 722.9,245.0" stroke="#000000" fill="none" style="stroke-width: 2; stroke-dasharray: 6, 2; marker-end: url(&quot;#markerArrowBlock&quot;);"></path></g><g class="signal"><text x="496.3203125" y="272.5" style=" font-size: 22px;  "><tspan x="496.3203125">display anti-wave</tspan></text><path d="M296.6,288.0C506.5,266.3 504.1,309.7 837.9,288.0" stroke="#000000" fill="none" style="stroke-width: 2; stroke-dasharray: 6, 2; marker-end: url(&quot;#markerArrowBlock&quot;);">
</path></g></svg>