<?xml version="1.0" encoding="utf-8" standalone="no"?><!DOCTYPE svg PUBLIC "-//W3C//DTD SVG 20010904//EN" "http://www.w3.org/TR/2001/REC-SVG-20010904/DTD/svg10.dtd">
<svg xmlns="http://www.w3.org/2000/svg" width="951" height="414" xmlns:xlink="http://www.w3.org/1999/xlink" style="font-weight: 400;  font-size: 22px; font-family: 'Nanum Pen Script', 'Comic Sans MS';">
<source><![CDATA[osicllator->analayzer1: sine waveform
osicllator->noiseReducer(AudioWorkletNode): sine waveform
noiseReducer(AudioWorkletNode)->analyser2: inverted waveform
Note over noiseReducer(AudioWorkletNode): AudioWorkletProcessor
analyser2->audioCtx.destination: inverted waveform
analayzer1->audioCtx.destination: sine waveform
]]></source><desc></desc><defs>
<style type="text/css">
        @font-face {
            font-family: "Nanum Pen Script";
            src: url("/assets/fonts/NanumPenScript-Regular.ttf");
        }
  </style>
  <marker viewBox="0 0 5 5" markerWidth="5" markerHeight="5" orient="auto" refX="5" refY="2.5" id="markerArrowBlock"><path d="M 0 0 L 5 2.5 L 0 5 z"></path></marker><marker viewBox="0 0 9.6 16" markerWidth="4" markerHeight="16" orient="auto" refX="9.6" refY="8" id="markerArrowOpen"><path d="M 9.6,8 1.92,16 0,13.7 5.76,8 0,2.286 1.92,0 9.6,8 z"></path></marker></defs><g class="title"></g><g class="actor"><path d="M10,20C62.5,23.9 39.5,16.1 107.3,20.0C105.5,52.2 109.0,26.9 107.3,63.0C62.6,66.9 42.8,59.1 10.0,63.0C8.3,30.3 11.7,37.4 10.0,20.0" stroke="#000000" fill="#ffffff" style="stroke-width: 2;"></path><text x="20" y="44" style="font-size: 24px; font-family: 'Nanum Pen Script', cursive;"><tspan x="20">osicllator</tspan></text></g><g class="actor"><path d="M10,351C88.2,354.9 83.9,347.1 107.3,351.0C105.5,370.4 109.0,361.3 107.3,394.0C91.7,390.1 48.4,397.9 10.0,394.0C8.3,361.4 11.7,364.7 10.0,351.0" stroke="#000000" fill="#ffffff" style="stroke-width: 2;"></path><text x="20" y="375" style="font-size: 24px; font-family: 'Nanum Pen Script', cursive;"><tspan x="20">osicllator</tspan></text></g><path d="M58.6,63.0C47.1,269.5 70.2,304.9 58.6,351.0" stroke="#000000" fill="none" style="stroke-width: 2;"></path><g class="actor"><path d="M151.640625,20C222.9,24.1 237.7,15.9 254.1,20.0C255.8,37.9 252.3,33.7 254.1,63.0C229.5,58.9 214.6,67.1 151.6,63.0C153.4,36.5 149.9,38.0 151.6,20.0" stroke="#000000" fill="#ffffff" style="stroke-width: 2;"></path><text x="161.640625" y="44" style="font-size: 24px; font-family: 'Nanum Pen Script', cursive;"><tspan x="161.640625">analayzer1</tspan></text></g><g class="actor"><path d="M151.640625,351C212.5,355.1 176.2,346.9 254.1,351.0C255.8,368.6 252.3,368.0 254.1,394.0C236.3,398.1 221.5,389.9 151.6,394.0C149.9,376.7 153.4,357.9 151.6,351.0" stroke="#000000" fill="#ffffff" style="stroke-width: 2;"></path><text x="161.640625" y="375" style="font-size: 24px; font-family: 'Nanum Pen Script', cursive;"><tspan x="161.640625">analayzer1</tspan></text></g><path d="M202.9,63.0C191.3,191.5 214.4,109.1 202.9,351.0" stroke="#000000" fill="none" style="stroke-width: 2;"></path><g class="actor"><path d="M274.0625,20C501.0,8.1 392.1,31.9 572.7,20.0C571.0,49.8 574.4,52.7 572.7,63.0C450.2,74.9 345.7,51.1 274.1,63.0C272.3,44.1 275.8,37.0 274.1,20.0" stroke="#000000" fill="#ffffff" style="stroke-width: 2;"></path><text x="284.0625" y="44" style="font-size: 24px; font-family: 'Nanum Pen Script', cursive;"><tspan x="284.0625">noiseReducer(AudioWorkletNode)</tspan></text></g><g class="actor"><path d="M274.0625,351C433.9,339.1 350.0,362.9 572.7,351.0C574.4,374.9 571.0,366.9 572.7,394.0C445.7,405.9 510.2,382.1 274.1,394.0C272.3,365.0 275.8,371.8 274.1,351.0" stroke="#000000" fill="#ffffff" style="stroke-width: 2;"></path><text x="284.0625" y="375" style="font-size: 24px; font-family: 'Nanum Pen Script', cursive;"><tspan x="284.0625">noiseReducer(AudioWorkletNode)</tspan></text></g><path d="M423.4,63.0C411.9,173.8 434.9,164.8 423.4,351.0" stroke="#000000" fill="none" style="stroke-width: 2;"></path><g class="actor"><path d="M592.6875,20C620.3,16.0 667.8,24.0 691.5,20.0C689.8,49.3 693.2,35.2 691.5,63.0C656.0,67.0 625.8,59.0 592.7,63.0C591.0,52.7 594.4,56.1 592.7,20.0" stroke="#000000" fill="#ffffff" style="stroke-width: 2;"></path><text x="602.6875" y="44" style="font-size: 24px; font-family: 'Nanum Pen Script', cursive;"><tspan x="602.6875">analyser2</tspan></text></g><g class="actor"><path d="M592.6875,351C669.1,347.0 633.8,355.0 691.5,351.0C693.2,383.7 689.8,386.2 691.5,394.0C670.0,390.0 608.5,398.0 592.7,394.0C591.0,371.3 594.4,361.3 592.7,351.0" stroke="#000000" fill="#ffffff" style="stroke-width: 2;"></path><text x="602.6875" y="375" style="font-size: 24px; font-family: 'Nanum Pen Script', cursive;"><tspan x="602.6875">analyser2</tspan></text></g><path d="M642.1,63.0C653.6,304.9 630.6,159.5 642.1,351.0" stroke="#000000" fill="none" style="stroke-width: 2;"></path><g class="actor"><path d="M730.5625,20C891.3,12.3 840.1,27.7 922.0,20.0C923.7,56.1 920.2,26.9 922.0,63.0C806.0,55.3 761.2,70.7 730.6,63.0C732.3,52.7 728.8,30.3 730.6,20.0" stroke="#000000" fill="#ffffff" style="stroke-width: 2;"></path><text x="740.5625" y="44" style="font-size: 24px; font-family: 'Nanum Pen Script', cursive;"><tspan x="740.5625">audioCtx.destination</tspan></text></g><g class="actor"><path d="M730.5625,351C781.5,343.3 836.2,358.7 922.0,351.0C920.2,380.3 923.7,372.0 922.0,394.0C876.0,386.3 821.4,401.7 730.6,394.0C728.8,357.9 732.3,361.3 730.6,351.0" stroke="#000000" fill="#ffffff" style="stroke-width: 2;"></path><text x="740.5625" y="375" style="font-size: 24px; font-family: 'Nanum Pen Script', cursive;"><tspan x="740.5625">audioCtx.destination</tspan></text></g><path d="M826.3,63.0C837.8,281.9 814.7,206.2 826.3,351.0" stroke="#000000" fill="none" style="stroke-width: 2;"></path><g class="signal"><text x="68.6328125" y="90.5" style="font-size: 24px; font-family: 'Nanum Pen Script', cursive;"><tspan x="68.6328125">sine waveform</tspan></text><path d="M58.6,106.0C120.5,100.2 81.7,111.8 202.9,106.0" stroke="#000000" fill="none" style="stroke-width: 2; marker-end: url(&quot;#markerArrowBlock&quot;);"></path></g><g class="signal"><text x="178.89453125" y="133.5" style="font-size: 24px; font-family: 'Nanum Pen Script', cursive;"><tspan x="178.89453125">sine waveform</tspan></text><path d="M58.6,149.0C280.9,134.4 268.0,163.6 423.4,149.0" stroke="#000000" fill="none" style="stroke-width: 2; marker-end: url(&quot;#markerArrowBlock&quot;);"></path></g><g class="signal"><text x="450.6484375" y="176.5" style="font-size: 24px; font-family: 'Nanum Pen Script', cursive;"><tspan x="450.6484375">inverted waveform</tspan></text><path d="M423.4,192.0C475.9,183.3 531.8,200.7 642.1,192.0" stroke="#000000" fill="none" style="stroke-width: 2; marker-end: url(&quot;#markerArrowBlock&quot;);"></path></g><g class="note"><path d="M318.1328125,212C464.2,203.6 363.4,220.4 528.6,212.0C527.3,225.4 529.9,219.9 528.6,245.0C376.0,253.4 402.1,236.6 318.1,245.0C319.5,233.2 316.8,239.7 318.1,212.0" stroke="#000000" fill="#ffffff" style="stroke-width: 2;"></path><text x="323.1328125" y="231" style="font-size: 24px; font-family: 'Nanum Pen Script', cursive;"><tspan x="323.1328125">AudioWorkletProcessor</tspan></text></g><g class="signal"><text x="652.09375" y="272.5" style="font-size: 24px; font-family: 'Nanum Pen Script', cursive;"><tspan x="652.09375">inverted waveform</tspan></text><path d="M642.1,288.0C792.7,295.4 782.1,280.6 826.3,288.0" stroke="#000000" fill="none" style="stroke-width: 2; marker-end: url(&quot;#markerArrowBlock&quot;);"></path></g><g class="signal"><text x="452.44921875" y="315.5" style="font-size: 24px; font-family: 'Nanum Pen Script', cursive;"><tspan x="452.44921875">sine waveform</tspan></text><path d="M202.9,331.0C516.4,306.1 390.4,355.9 826.3,331.0" stroke="#000000" fill="none" style="stroke-width: 2; marker-end: url(&quot;#markerArrowBlock&quot;);"></path></g></svg>