<?xml version="1.0" encoding="utf-8" standalone="no"?>
<!DOCTYPE svg PUBLIC "-//W3C//DTD SVG 20010904//EN" "http://www.w3.org/TR/2001/REC-SVG-20010904/DTD/svg10.dtd">
<svg xmlns="http://www.w3.org/2000/svg" width="696" height="252" xmlns:xlink="http://www.w3.org/1999/xlink" style="font-weight: 400;  font-size: 22px; font-family: 'Nanum Pen Script', 'Comic Sans MS';">
<source><![CDATA[microphone->analyser: recorded waveform
osicllator->analyser: sine waveform
analyser->audioCtx.destination:
]]>
</source>
<desc></desc>
<defs>
    <style type="text/css">
        @font-face {
            font-family: "Nanum Pen Script";
            src: url("/assets/fonts/NanumPenScript-Regular.ttf");
        }
  </style>
  <marker viewBox="0 0 5 5" markerWidth="5" markerHeight="5" orient="auto" refX="5" refY="2.5" id="markerArrowBlock"><path d="M 0 0 L 5 2.5 L 0 5 z"></path></marker><marker viewBox="0 0 9.6 16" markerWidth="4" markerHeight="16" orient="auto" refX="9.6" refY="8" id="markerArrowOpen"><path d="M 9.6,8 1.92,16 0,13.7 5.76,8 0,2.286 1.92,0 9.6,8 z"></path></marker></defs><g class="title"></g><g class="actor"><path d="M10,20C108.5,24.7 99.1,15.3 127.3,20.0C129.0,41.7 125.5,56.1 127.3,63.0C28.8,67.7 79.1,58.3 10.0,63.0C8.3,49.3 11.7,26.9 10.0,20.0" stroke="#000000" fill="#ffffff" style="stroke-width: 2;"></path><text x="20" y="44" style="font-weight: 400;  font-size: 22px;  "><tspan x="20">microphone</tspan></text></g><g class="actor"><path d="M10,189C57.9,184.3 28.8,193.7 127.3,189.0C125.5,199.3 129.0,199.1 127.3,232.0C28.8,236.7 73.6,227.3 10.0,232.0C11.7,221.3 8.3,217.3 10.0,189.0" stroke="#000000" fill="#ffffff" style="stroke-width: 2;"></path><text x="20" y="213" style=" font-size: 22px;  "><tspan x="20">microphone</tspan></text></g><path d="M68.6,63.0C73.7,90.6 63.6,93.2 68.6,189.0" stroke="#000000" fill="none" style="stroke-width: 2;"></path><g class="actor"><path d="M218.8671875,20C242.9,16.5 239.9,23.5 306.5,20.0C304.8,27.1 308.2,32.0 306.5,63.0C239.9,66.5 242.5,59.5 218.9,63.0C220.6,39.1 217.1,55.8 218.9,20.0" stroke="#000000" fill="#ffffff" style="stroke-width: 2;"></path><text x="228.8671875" y="44" style=" font-size: 22px;  "><tspan x="228.8671875">analyser</tspan></text></g><g class="actor"><path d="M218.8671875,189C292.5,192.5 285.5,185.5 306.5,189.0C308.2,208.5 304.8,206.1 306.5,232.0C243.6,228.5 267.3,235.5 218.9,232.0C217.1,225.1 220.6,221.7 218.9,189.0" stroke="#000000" fill="#ffffff" style="stroke-width: 2;"></path><text x="228.8671875" y="213" style=" font-size: 22px;  "><tspan x="228.8671875">analyser</tspan></text></g><path d="M262.7,63.0C267.7,113.5 257.6,93.2 262.7,189.0" stroke="#000000" fill="none" style="stroke-width: 2;"></path><g class="actor"><path d="M358.2734375,20C386.4,16.1 432.2,23.9 455.5,20.0C457.3,48.5 453.8,56.1 455.5,63.0C430.7,66.9 399.2,59.1 358.3,63.0C360.0,46.3 356.6,45.8 358.3,20.0" stroke="#000000" fill="#ffffff" style="stroke-width: 2;"></path><text x="368.2734375" y="44" style=" font-size: 22px;  "><tspan x="368.2734375">osicllator</tspan></text></g><g class="actor"><path d="M358.2734375,189C373.8,192.9 440.0,185.1 455.5,189.0C457.3,213.2 453.8,219.3 455.5,232.0C440.0,228.1 373.8,235.9 358.3,232.0C360.0,206.6 356.6,221.7 358.3,189.0" stroke="#000000" fill="#ffffff" style="stroke-width: 2;"></path><text x="368.2734375" y="213" style=" font-size: 22px;  "><tspan x="368.2734375">osicllator</tspan></text></g><path d="M406.9,63.0C401.9,136.5 411.9,168.8 406.9,189.0" stroke="#000000" fill="none" style="stroke-width: 2;"></path><g class="actor"><path d="M475.5390625,20C564.4,12.3 596.5,27.7 666.9,20.0C668.7,30.3 665.2,52.7 666.9,63.0C621.0,70.7 636.3,55.3 475.5,63.0C473.8,52.7 477.3,45.0 475.5,20.0" stroke="#000000" fill="#ffffff" style="stroke-width: 2;"></path><text x="485.5390625" y="44" style=" font-size: 22px;  "><tspan x="485.5390625">audioCtx.destination</tspan></text></g><g class="actor"><path d="M475.5390625,189C527.9,196.7 621.0,181.3 666.9,189.0C665.2,213.7 668.7,219.4 666.9,232.0C506.2,224.3 584.1,239.7 475.5,232.0C473.8,195.9 477.3,201.1 475.5,189.0" stroke="#000000" fill="#ffffff" style="stroke-width: 2;"></path><text x="485.5390625" y="213" style=" font-size: 22px;  "><tspan x="485.5390625">audioCtx.destination</tspan></text></g><path d="M571.2,63.0C576.3,117.5 566.2,83.2 571.2,189.0" stroke="#000000" fill="none" style="stroke-width: 2;"></path><g class="signal"><text x="78.625" y="90.5" style=" font-size: 22px;  "><tspan x="78.625">recorded waveform</tspan></text><path d="M68.6,106.0C170.7,98.2 200.8,113.8 262.7,106.0" stroke="#000000" fill="none" style="stroke-width: 2; marker-end: url(&quot;#markerArrowBlock&quot;);"></path></g><g class="signal"><text x="272.6875" y="133.5" style=" font-size: 22px;  "><tspan x="272.6875">sine waveform</tspan></text><path d="M406.9,149.0C285.8,143.2 383.8,154.8 262.7,149.0" stroke="#000000" fill="none" style="stroke-width: 2; marker-end: url(&quot;#markerArrowBlock&quot;);"></path></g><g class="signal"><text x="416.96484375" y="174" style=" font-size: 22px;"><tspan x="416.96484375"></tspan></text><path d="M262.7,169.0C521.9,181.3 497.2,156.7 571.2,169.0" stroke="#000000" fill="none" style="stroke-width: 2; marker-end: url(&quot;#markerArrowBlock&quot;);">
</path></g></svg>